<svg xmlns="http://www.w3.org/2000/svg" viewBox="0 0 61 50.31"><g id="レイヤー_2" data-name="レイヤー 2"><g id="レイヤー_1-2" data-name="レイヤー 1"><path d="M55.5,3a2.5,2.5,0,0,1,0,5H44.23l2,8.11H52.5a2.5,2.5,0,0,1,0,5H47.4L53,44.22a2.5,2.5,0,0,1-1.84,3,2.44,2.44,0,0,1-.59.07,2.51,2.51,0,0,1-2.43-1.91L42.26,21.11H18.74L12.86,45.4a2.51,2.51,0,0,1-2.43,1.91,2.44,2.44,0,0,1-.59-.07,2.5,2.5,0,0,1-1.84-3l5.6-23.11H8.5a2.5,2.5,0,0,1,0-5h6.31l2-8.11H5.5a2.5,2.5,0,0,1,0-5h50M20,16.11h21.1L39.09,8H21.92l-2,8.11M55.5,0H5.5a5.5,5.5,0,0,0,0,11H13l-.51,2.11H8.5a5.5,5.5,0,0,0,0,11H9.79L5.09,43.52a5.5,5.5,0,0,0,4.05,6.64,5.61,5.61,0,0,0,1.29.15,5.49,5.49,0,0,0,5.35-4.21l5.32-22H39.9l5.32,22a5.49,5.49,0,0,0,5.35,4.21,5.61,5.61,0,0,0,1.29-.15,5.5,5.5,0,0,0,4-6.64L51.22,24.11H52.5a5.5,5.5,0,0,0,0-11h-4L48,11H55.5a5.5,5.5,0,0,0,0-11ZM24.28,11H36.72l.51,2.11H23.77L24.28,11Z"/></g></g></svg>