<svg xmlns="http://www.w3.org/2000/svg" viewBox="0 0 55 44.31"><g id="レイヤー_2" data-name="レイヤー 2"><g id="レイヤー_1-2" data-name="レイヤー 1"><path d="M52.5,0H2.5a2.5,2.5,0,0,0,0,5H13.77l-2,8.11H5.5a2.5,2.5,0,0,0,0,5h5.1L5,41.22a2.5,2.5,0,0,0,1.84,3,2.44,2.44,0,0,0,.59.07A2.51,2.51,0,0,0,9.86,42.4l5.88-24.29H39.26L45.14,42.4a2.51,2.51,0,0,0,2.43,1.91,2.44,2.44,0,0,0,.59-.07,2.5,2.5,0,0,0,1.84-3L44.4,18.11h5.1a2.5,2.5,0,0,0,0-5H43.19L41.23,5H52.5a2.5,2.5,0,0,0,0-5ZM38.05,13.11H17l2-8.11H36.09Z"/></g></g></svg>