<svg viewBox="0 0 50 50" xmlns="http://www.w3.org/2000/svg"><path d="m43.9 8.65c-.44-.51-.9-1-1.39-1.48a25 25 0 0 0 -42.51 17.68v.15c0 .63 0 1.25.08 1.86a24.61 24.61 0 0 0 1.77 7.59c.27.66.58 1.31.9 1.95a25 25 0 0 0 46.72-6.27c.16-.78.29-1.57.38-2.37s.15-1.83.15-2.76a24.87 24.87 0 0 0 -6.1-16.35zm-18.9-5.65a21.92 21.92 0 0 1 15.13 6.05l-.34.32a15.89 15.89 0 0 1 -5.57 3.63 16 16 0 0 1 -6.48 1.34 17.62 17.62 0 0 0 -7.19 1.48 17.75 17.75 0 0 0 -6.16 4 15.88 15.88 0 0 1 -5.56 3.59 15.61 15.61 0 0 1 -5.83 1.27 22 22 0 0 1 22-21.68zm0 44a22 22 0 0 1 -18.58-10.24l.52.11a18.4 18.4 0 0 0 4.19.53 21.37 21.37 0 0 0 3.14-.25 17.83 17.83 0 0 0 6.93-2.39 15.92 15.92 0 0 1 6.26-2.17 15.88 15.88 0 0 1 6.62.26 17.9 17.9 0 0 0 7.33.27 19.14 19.14 0 0 0 4.46-1.12 22 22 0 0 1 -20.87 15zm21.55-17.57a15.44 15.44 0 0 1 -5.43 1.71 15.75 15.75 0 0 1 -6.62-.25 17.73 17.73 0 0 0 -7.33-.27 17.67 17.67 0 0 0 -6.93 2.38 16.1 16.1 0 0 1 -6.24 2.17 15.93 15.93 0 0 1 -6.62-.25c-.69-.15-1.4-.3-2.19-.4a21.86 21.86 0 0 1 -2.1-7.84 17.47 17.47 0 0 0 6.52-1.47 17.76 17.76 0 0 0 6.16-4 15.73 15.73 0 0 1 5.56-3.6 16 16 0 0 1 6.47-1.31 17.58 17.58 0 0 0 7.2-1.48 17.8 17.8 0 0 0 6.16-4l.38-.35a21.92 21.92 0 0 1 5.46 14.53 21.54 21.54 0 0 1 -.45 4.43z" fill="#333"/></svg>