<svg xmlns="http://www.w3.org/2000/svg" viewBox="0 0 50 50"><defs></defs><g id="レイヤー_2" data-name="レイヤー 2"><g id="レイヤー_1-2" data-name="レイヤー 1"><path class="cls-1" d="M7.36,34.92a15.88,15.88,0,0,0,6.61.25A16,16,0,0,0,20.23,33a17.67,17.67,0,0,1,6.94-2.39,17.73,17.73,0,0,1,7.33.27,15.71,15.71,0,0,0,6.61.25A15.66,15.66,0,0,0,47.37,29a22.76,22.76,0,0,1,2.47-1.22A25.25,25.25,0,0,0,50,25,24.92,24.92,0,0,0,43.9,8.65a17.38,17.38,0,0,0-2.76,2.19,17.9,17.9,0,0,1-6.16,4,17.62,17.62,0,0,1-7.19,1.48,16,16,0,0,0-6.48,1.34,15.73,15.73,0,0,0-5.56,3.6,17.72,17.72,0,0,1-6.17,4A17.8,17.8,0,0,1,2.4,26.7a21.4,21.4,0,0,0-2.33.16,24.91,24.91,0,0,0,1.78,7.59A17.52,17.52,0,0,1,7.36,34.92Z"/><path class="cls-1" d="M41.41,33.12a17.89,17.89,0,0,1-7.33-.27,15.9,15.9,0,0,0-6.62-.26,15.92,15.92,0,0,0-6.26,2.17,17.83,17.83,0,0,1-6.93,2.39,21.47,21.47,0,0,1-3.14.25,18.32,18.32,0,0,1-4.19-.53,16.76,16.76,0,0,0-4.19-.47,25,25,0,0,0,46.72-6.27c-.39.19-.76.39-1.13.6A17.67,17.67,0,0,1,41.41,33.12Z"/><path class="cls-1" d="M8.83,23.36a16.08,16.08,0,0,0,5.56-3.59,17.65,17.65,0,0,1,6.16-4,17.58,17.58,0,0,1,7.18-1.48A16,16,0,0,0,34.22,13a15.73,15.73,0,0,0,5.56-3.6,20.19,20.19,0,0,1,2.73-2.2A25,25,0,0,0,0,24.85c.84-.1,1.6-.13,2.34-.15A15.86,15.86,0,0,0,8.83,23.36Z"/></g></g></svg>
