<svg xmlns="http://www.w3.org/2000/svg" viewBox="0 0 55.61 39.97"><defs></defs><g id="レイヤー_2" data-name="レイヤー 2"><g id="レイヤー_1-2" data-name="レイヤー 1"><path class="cls-1" d="M48.66,0H7A7,7,0,0,0,0,7V33A7,7,0,0,0,7,40H48.66a7,7,0,0,0,7-6.95V7A7,7,0,0,0,48.66,0ZM19.07,23.83l-8.78,8.78a1,1,0,0,1-1.41,0,1,1,0,0,1,0-1.41l8.78-8.78a1,1,0,1,1,1.41,1.41ZM9,8.85a1,1,0,0,1-.15-1.41,1,1,0,0,1,1.4-.15L27.81,21.5,45.4,7.29a1,1,0,1,1,1.26,1.56L27.81,24.07ZM46.74,32.61a1,1,0,0,1-.71.3,1,1,0,0,1-.71-.3l-8.77-8.78A1,1,0,1,1,38,22.42l8.78,8.78A1,1,0,0,1,46.74,32.61Z"/></g></g></svg>
