<svg xmlns="http://www.w3.org/2000/svg" viewBox="0 0 55.61 39.97"><defs></defs><g id="レイヤー_2" data-name="レイヤー 2"><g id="レイヤー_1-2" data-name="レイヤー 1"><path class="cls-1" d="M48.66,0H7A7,7,0,0,0,0,7V33A7,7,0,0,0,7,40H48.66a7,7,0,0,0,7-6.95V7A7,7,0,0,0,48.66,0Zm4,33a4,4,0,0,1-4,3.95H7A4,4,0,0,1,3,33V7A4,4,0,0,1,7,3H48.66a4,4,0,0,1,4,4Z"/><path class="cls-1" d="M46.81,7.44a1,1,0,0,0-1.41-.15L27.81,21.5,10.21,7.29a1,1,0,0,0-1.4.15A1,1,0,0,0,9,8.85L27.81,24.07,46.66,8.85A1,1,0,0,0,46.81,7.44Z"/><path class="cls-1" d="M17.66,22.42,8.88,31.2a1,1,0,0,0,0,1.41,1,1,0,0,0,1.41,0l8.78-8.78a1,1,0,1,0-1.41-1.41Z"/><path class="cls-1" d="M38,22.42a1,1,0,0,0-1.41,0,1,1,0,0,0,0,1.41l8.77,8.78a1,1,0,1,0,1.42-1.41Z"/></g></g></svg>
