<svg xmlns="http://www.w3.org/2000/svg" viewBox="0 0 43.36 43.34"><defs></defs><g id="レイヤー_2" data-name="レイヤー 2"><g id="レイヤー_1-2" data-name="レイヤー 1"><path class="cls-1" d="M31.91,3.59l7.84,7.84L16.15,35,8.31,27.19l23.6-23.6m0-3.59a1.53,1.53,0,0,0-1.09.43L5.15,26.1a1.54,1.54,0,0,0-.45,1.09,1.51,1.51,0,0,0,.45,1.08l9.92,9.92a1.52,1.52,0,0,0,1.08.45,1.55,1.55,0,0,0,1.09-.45L42.91,12.52a1.53,1.53,0,0,0,0-2.17L33,.43A1.53,1.53,0,0,0,31.91,0Z"/><path class="cls-1" d="M0,43.34,1.59,30.88a1.5,1.5,0,1,1,3,.38l-1.1,8.61,8.61-1.1a1.5,1.5,0,1,1,.38,3Z"/></g></g></svg>
