<?xml version="1.0" encoding="UTF-8"?>
<svg id="_レイヤー_2" data-name="レイヤー 2" xmlns="http://www.w3.org/2000/svg" viewBox="0 0 50.25 46.99">
  <defs>
    <style>
      .cls-1 {
        fill: #333;
        stroke: #000;
        stroke-linecap: round;
        stroke-linejoin: round;
        stroke-width: .25px;
      }
    </style>
  </defs>
  <g id="_レイヤー_1-2" data-name="レイヤー 1">
    <path class="cls-1" d="m50.04,14.83c.22-.99.04-2-.51-2.86-.48-.75-1.19-1.28-1.98-1.55,1.42-1.21,1.77-3.32.73-4.93-1.13-1.76-3.48-2.28-5.24-1.15l-1.13.73c.08-.84-.12-1.68-.58-2.4-1.02-1.59-3.29-2.39-6.08-.61l-12.29,7.87c.05-.62.13-1.24.21-1.88.13-1.04.26-2.11.29-3.19.02-.71-.06-1.34-.23-1.92-.43-1.43-1.42-2.45-2.64-2.74-1.18-.28-2.4.25-3.25,1.42-.78,1.07-1.37,2.23-1.94,3.37l-.49.96c-.42.81-.87,1.63-1.35,2.48-.25-.14-.52-.24-.8-.31-1.23-.29-2.49.26-3.38,1.47-.8,1.09-1.4,2.29-1.99,3.44l-.5.98c-.78,1.49-1.64,3.03-2.64,4.7l-.57.95c-1.52,2.51-3.1,5.1-3.44,8.12-.07.65-.11,1.3-.11,1.95,0,3.08.85,6.08,2.58,9.12,2.11,3.72,5.12,6.28,8.69,7.41.92.29,1.92.48,2.96.55,2.01.14,3.62.08,5.44-.64,1.4-.56,2.87-1.34,4.61-2.46l1.07-.68,2.72-1.74.7-.45,11.2-7.19c1.17-.75,1.81-2.02,1.81-3.31,0-.51-.1-1.03-.31-1.52,2.84-1.82,5.76-3.7,5.76-3.7,1.76-1.13,2.28-3.48,1.15-5.24-.47-.74-1.16-1.26-1.93-1.53l1.79-1.14c.85-.55,1.44-1.39,1.66-2.38Zm-6.21-9.25c1.08-.69,2.53-.38,3.22.71.69,1.08.38,2.53-.71,3.22l-2.05,1.32-3.57,2.28c-.55-.64-1.29-1.09-2.14-1.28-1.03-.23-2.08-.04-2.96.53,0,0-.9.58-1.06.68,0-.09.01-.18.01-.26,0-.4-.06-.78-.18-1.16l5.78-3.7,3.65-2.34Zm-16.46,34.36c-.08.03-.44.26-2.75,1.74l-1.07.68c-1.66,1.06-3.04,1.8-4.34,2.32-1.54.61-2.96.66-4.74.53-.92-.07-1.79-.23-2.59-.48-3.18-1-5.87-3.31-7.78-6.67-1.59-2.79-2.37-5.53-2.37-8.34,0-.58.03-1.17.1-1.76.3-2.67,1.79-5.11,3.22-7.47l.58-.96c1.01-1.69,1.89-3.26,2.68-4.78l.51-1c.58-1.15,1.13-2.23,1.85-3.22.24-.32.87-1.05,1.71-.85.83.19,1.35,1.03,1.56,1.74.13.43.19.92.17,1.48-.02,1.02-.16,2.07-.28,3.09-.14,1.14-.29,2.32-.3,3.5,0,.17.04.32.13.45.24.37.74.48,1.11.24l13.76-8.81c1.02-.65,2.01-.91,2.8-.74.53.12.96.42,1.26.9.33.52.45,1.14.31,1.75-.13.61-.49,1.12-1.02,1.46l-12.87,8.24c-.18.12-.31.29-.35.5-.05.21,0,.42.11.6.24.37.74.48,1.11.24l16.59-10.62c.52-.33,1.14-.44,1.75-.31.61.13,1.12.49,1.46,1.02.69,1.08.37,2.52-.7,3.21l-15.77,10.09c-.37.24-.48.74-.24,1.11.24.37.74.48,1.11.24l13.67-8.75c.52-.33,1.14-.45,1.75-.31.61.13,1.12.49,1.46,1.02.33.52.45,1.14.31,1.75-.13.61-.49,1.12-1.02,1.46l-4.18,2.67c-.07.04-10.27,6.58-10.71,6.85-.37.24-.48.74-.24,1.11.24.37.74.48,1.11.24l10.67-6.83c1.05-.55,2.38-.19,3.03.81.33.52.44,1.14.31,1.75-.13.61-.49,1.12-1.02,1.46l-11.2,7.19-.7.45s.02,0,.04,0ZM16.19,6.61l.5-.98c.57-1.13,1.11-2.19,1.82-3.16.24-.33.88-1.06,1.74-.86.83.2,1.36,1.03,1.57,1.74.13.43.19.91.17,1.47-.02,1.01-.15,2.04-.28,3.04-.14,1.11-.28,2.26-.29,3.42,0,0,0,0,0,0,0,0,0,0,0,0h0c0,.14.04.28.11.4.22.34.67.44,1.01.22l13.48-8.63c1.73-1.11,3.29-1.04,4.06.17.34.53.45,1.15.31,1.76-.13.61-.5,1.13-1.02,1.47l-5.68,3.64c-.52-.63-1.23-1.07-2.04-1.25-1.22-.27-2.61.06-4,.95,0,0-12.24,7.84-12.44,7.96.05-.56.12-1.13.2-1.8.13-1.07.27-2.16.29-3.26,0-.07,0-.14,0-.2,0-.65-.08-1.23-.24-1.78-.18-.6-.46-1.13-.8-1.57.54-.95,1.04-1.87,1.51-2.77Zm31.09,14.05c.69,1.08.38,2.53-.71,3.22,0,0-2.94,1.88-5.78,3.71-.39-.4-.86-.71-1.4-.92.16-.1,1.73-1.11,1.73-1.11.88-.57,1.49-1.44,1.72-2.47.06-.28.09-.57.09-.85,0-.48-.09-.96-.26-1.41l1.56-1c1.06-.55,2.39-.21,3.04.81Zm.3-4.69l-4.09,2.62s-.65.41-1.59,1.01c-.42-.46-.95-.81-1.55-1.03.86-.76,1.31-1.84,1.31-2.93,0-.43-.07-.87-.22-1.28l3.63-2.32c.52-.34,1.15-.45,1.76-.31.61.13,1.13.5,1.46,1.02.34.53.45,1.15.31,1.76-.13.61-.5,1.13-1.02,1.46Z"/>
  </g>
</svg>