<svg xmlns="http://www.w3.org/2000/svg" viewBox="0 0 42.39 54.11"><defs></defs><g id="レイヤー_2" data-name="レイヤー 2"><g id="レイヤー_1-2" data-name="レイヤー 1"><path class="cls-1" d="M21.13,3c.36,0,.72,0,1.07,0A18,18,0,0,1,39.39,20.86c0,4.9-2.36,10.07-6.64,14.54l-.64.66c-3.76,3.91-7.31,7.62-9.76,12.5L21.2,50.88,20,48.53c-2.46-4.91-6-8.62-9.84-12.55l-.72-.74C6.26,31.92,3.36,28.43,3,22.16A18,18,0,0,1,8.15,8.23,18.44,18.44,0,0,1,21.13,3m0-3A21.35,21.35,0,0,0,6,6.1,21,21,0,0,0,0,22.32c.39,7.29,3.81,11.41,7.27,15l.72.74c3.63,3.75,7.07,7.3,9.32,11.8l1.34,2.69a2.82,2.82,0,0,0,5,0L25,49.9c2.24-4.48,5.64-8,9.24-11.77l.63-.66c4.82-5,7.48-10.93,7.48-16.61A21,21,0,0,0,22.36,0L21.13,0Z"/><path class="cls-1" d="M21.19,23.58,8.91,13.66a1,1,0,0,1-.15-1.41,1,1,0,0,1,1.4-.15l11,8.91,11-8.91a1,1,0,1,1,1.26,1.56Z"/><path class="cls-1" d="M9.54,29.13a1,1,0,0,1-.71-.3,1,1,0,0,1,0-1.41l5.61-5.62a1,1,0,1,1,1.42,1.42l-5.62,5.61A1,1,0,0,1,9.54,29.13Z"/><path class="cls-1" d="M32.85,29.13a1,1,0,0,1-.71-.3l-5.61-5.61a1,1,0,0,1,0-1.42,1,1,0,0,1,1.41,0l5.61,5.62a1,1,0,0,1-.7,1.71Z"/></g></g></svg>
