<svg xmlns="http://www.w3.org/2000/svg" viewBox="0 0 42.39 54.11"><defs></defs><g id="レイヤー_2" data-name="レイヤー 2"><g id="レイヤー_1-2" data-name="レイヤー 1"><path class="cls-1" d="M22.36,0A21.47,21.47,0,0,0,6,6.1,21,21,0,0,0,0,22.32c.39,7.29,3.81,11.41,7.27,15l.72.74c3.63,3.75,7.07,7.3,9.32,11.8l1.34,2.69a2.82,2.82,0,0,0,5,0L25,49.9c2.24-4.48,5.64-8,9.24-11.77l.63-.66c4.82-5,7.48-10.93,7.48-16.61A21,21,0,0,0,22.36,0Zm-6.5,23.19-5.62,5.61a1,1,0,0,1-1.41,0,1,1,0,0,1,0-1.41l5.61-5.62a1,1,0,1,1,1.42,1.42Zm5.33.36L8.91,13.66a1,1,0,0,1,1.26-1.56l11,8.91,11-8.91a1,1,0,1,1,1.26,1.56Zm12.37,5.25a1,1,0,0,1-.71.3,1,1,0,0,1-.71-.3l-5.61-5.61a1,1,0,0,1,0-1.42,1,1,0,0,1,1.41,0l5.62,5.62A1,1,0,0,1,33.56,28.83Z"/></g></g></svg>
